<svg width="800" height="800" viewBox="0 0 800 800" fill="none" xmlns="http://www.w3.org/2000/svg">
<g clip-path="url(#clip0_572_756)">
<path d="M583.333 63.8845C545.798 64.4684 509.081 74.9463 476.891 94.2602C444.701 113.574 418.178 141.04 399.999 173.885C381.821 141.04 355.297 113.574 323.107 94.2602C290.917 74.9463 254.201 64.4684 216.666 63.8845C156.831 66.4842 100.456 92.6597 59.8587 136.692C19.2612 180.725 -2.25909 239.035 -0.000739255 298.885C-0.000739255 450.451 159.533 615.985 293.333 728.218C323.207 753.322 360.978 767.085 399.999 767.085C439.021 767.085 476.792 753.322 506.666 728.218C640.466 615.985 799.999 450.451 799.999 298.885C802.258 239.035 780.737 180.725 740.14 136.692C699.542 92.6597 643.168 66.4842 583.333 63.8845Z" fill="#050037" fill-opacity="0.5"/>
</g>
<defs>
<clipPath id="clip0_572_756">
<rect width="800" height="800" fill="white"/>
</clipPath>
</defs>
</svg>
